<?xml version="1.0" encoding="UTF-8"?>
<svg id="Calque_1" xmlns="http://www.w3.org/2000/svg" version="1.1" viewBox="0 0 1920 1080">
  <!-- Generator: Adobe Illustrator 29.1.0, SVG Export Plug-In . SVG Version: 2.1.0 Build 93)  -->
  <defs>
    <style>
      .st0 {
        stroke: #fff;
        stroke-miterlimit: 10;
        stroke-width: 2px;
      }
    </style>
  </defs>
  <path class="st0" d="M957.01,738c2.71.73,2.74-3.05,3.49-5,11.17-29.02,15.81-60.38,29.64-88.36,9.85-19.92,13.86-17.28,30.78-28.22,15.3-9.89,28.69-19.46,39.78-34.22,35.05-5.35,74.16-7.34,106.65-22.35,5.07-2.34,9.6-5.52,14.64-7.85-32.33,30.04-74.4,47.3-106.5,77.99l7.24-26.77-.72-3.22c-1.99,5.44-5.08,11.44-8.21,16.3-8.59,13.32-17.11,14.28-29.72,22.28-13.1,8.3-27.46,19.68-37.6,31.4-1.25,1.44-7.02,8.5-7.48,9.52-.2.43-.25,1.64.49,1.48,5.28-5.02,10.74-10.05,16.52-14.48.79-.61,1.92-2.7,2.98-1.02l-37.01,73.5c-1.8.24-.91-2.17-.74-3.24.9-5.69,3.44-11.27,3.65-17.15l-8.88-29.6c.17,5.8-.28,11.68,0,17.48.17,3.55,2.34,9.61,1.83,12.76-1.22,7.39-12.33,28.27-15.58,37.5-1.54,4.38-2.7,8.76-3.75,13.26-2.93-8.39-5.53-16.96-8.73-25.28-2.61-6.79-9.44-19.17-10.53-25.47-1.55-9.01,2.31-20.77.75-30.26l-8.88,30.6c.57,5.56,2.59,10.87,3.44,16.36.16,1.05,1.35,3.26-.53,3.03l-36-71.51,1.48-1.48,15.03,12.98c1.29.37,1.97-.2,1.48-1.48-1.02-2.62-12.22-14.44-14.97-17.03-8.54-8.03-21.03-16.82-31.09-22.91-5.65-3.41-18.92-8.73-22.85-12.15-5.07-4.42-11.28-19.19-15.08-25.42l-.55,3.04,7.06,26.94c-31.79-30.56-73.86-47.62-105.5-77.99l21.03,10.46c32.24,12.48,67.14,15.08,100.95,21.05,9,13.4,21.24,21.89,34.71,30.29,7.19,4.48,18.7,9.11,24.81,14.19,7.4,6.15,16.75,28.28,20.25,37.75,8.69,23.54,13.62,48.65,22.26,72.25Z"/>
  <path class="st0" d="M920.65,480.35c23.23,24.51,27.02,37.67,36.32,69.19.43,1.46-.58,1.75,2.02,1.47,2.13-15.98,8.24-32.16,16.59-45.92,15.37-25.34,41.04-41.35,56.22-66.78,17.8-29.82,23.52-64.13,8.75-96.36-.25-.56-4-5.54-2.06-4.94,21.36,18.33,41.53,46.1,43.5,74.99-2.37-1.7-2.78-5.73-4.17-8.31-4.43-8.25-10.4-16.91-17.81-22.68,7.21,22.84,10.33,46.53.75,69.26-8.87,21.05-31.77,35.41-46.79,52.21-10.81,12.1-36.31,48.66-37.98,64.02-1.18,10.86,2.19,26.77.97,35.92-.9,6.8-9.21,24.22-11.98,32.07-2.33,6.59-5.03,13.68-5.99,20.52-2.45.3-1.59,0-2.1-1.4-5.93-16.23-9.98-33.34-16.66-49.34-1.78-12.03,2.1-24.81.65-36.65-2.03-16.63-24.97-49.76-36.37-62.63-16.48-18.6-43.05-34.8-51.27-58.73-7.26-21.11-4.87-44.36,1.75-65.26l-6.5,5.99-15.48,26.01c.77-14.55,6.93-28.86,14.18-41.3s18.04-26.32,29.8-34.69c-2.39,5.96-6.05,11.27-8.02,17.47-9.07,28.47.54,64.87,17.22,88.85,9.99,14.36,22.7,24.63,34.46,37.04Z"/>
  <path class="st0" d="M1035,572.99c15.13-13.37,28.9-30.79,46.33-41.16,21.62-12.87,47.63-20.23,63.18-41.82,1.5.78-.29,2.41-.67,3.33-4.09,9.69-10.87,17.95-17.83,25.66,39.05-12.16,70.43-42.78,92.99-75.99-6.61,49.6-35.04,94.97-84.78,109.71-21.45,6.36-44.88,6-65.48,13.52-4.97,1.82-10.1,5.68-15.48,6.52-6.06.95-12.24-.47-18.26.23Z"/>
  <path class="st0" d="M787,518.99c-5.89-7.24-12.72-14.45-16.2-23.29-.38-.97-1.61-3.06-.3-3.7,6.72,6.66,13.08,13.7,20.98,19.02,21.58,14.52,41.33,18.82,62.54,37.46,8.86,7.79,17,16.8,25.99,24.5-4.93-1.74-9.3.27-14.54.04-10.64-.46-19.49-6.86-29.46-9.54-18.43-4.96-37.82-5.12-56.77-11.23-49.36-15.92-74.28-62.67-82.23-111.26l10.17,15.31c21.08,25.86,47.46,51.99,79.82,62.67Z"/>
  <path class="st0" d="M1095,509.99c8.29-8.93,17.07-17.87,22.54-28.95,6.56-13.28,14.08-40.19,6.69-53.77-.64-1.17.02-1.69-2.23-1.27-.22,12.59-8.05,26.17-14.76,36.71-.63.99.1,1.78-2.24,1.28-.24-4.07.38-8.35-.11-12.39-.52-4.28-4.85-14.37-4.63-16.95.26-3.07,6.55-15.34,8.02-19.87,11.45-35.23,9.11-75.84-9.28-108.29-.16-.74,1.05-.68,1.48-.49,1.87.84,9.62,10.21,11.49,12.52,22,27.23,45.02,76.9,47.02,111.98.79,13.8-3.05,17.89-10.18,28.8-13.08,20.02-27.94,35-48.08,47.92-1.75,1.12-3.54,2.86-5.73,2.76Z"/>
  <path class="st0" d="M815,306.01c-17.48,34.41-20.02,69.96-9.5,106.99,1.43,5.03,7.29,17.96,7.44,21.59.14,3.36-4.16,14.63-4.82,20.04-.38,3.11-.02,6.26-.14,9.37l-12.47-22.01-4.53-17.98-3.75,9.73c-3.53,18.65,5.14,46.89,16.34,62.18l11.91,14.09c-21.91-12.64-39.49-32.05-52.3-53.7-2.02-3.41-6.37-10.22-7.41-13.58s-.13-13.01.35-17.1c4.07-35.18,27.41-87.47,51.36-113.64.88-.97,6.43-7.09,7.51-5.98Z"/>
  <path class="st0" d="M933,587c-13.79-13.1-21.75-37.08-34.51-49.99-11.85-12-28.41-15.13-40.43-23.57-3.97-2.79-8.57-8.19-12.59-11.41-3.32-2.66-19.58-14.37-20.27-16.73-.65-9.5.42-19.81,2.45-29.14,1.49-6.84,5.85-20.92,9.11-26.88.63-1.15-.05-1.7,2.23-1.27-.43,7.04,1.55,13.99,3.98,20.52,12.53,33.67,45.95,48.93,68.54,74.46,5.18,5.85,21.49,27.5,21.49,34.51v29.5Z"/>
  <path class="st0" d="M984,556.5c.67-4.3,6.6-14.81,9.19-18.81,25.53-39.36,79.11-58.05,83.82-109.68l6,13.48c4.05,12.96,8.38,27.32,7.05,41.08-.21,2.16,0,2.67-1.48,4.52-2.86,3.55-17.29,13.21-22.06,16.94-3.79,2.96-7.97,7.88-11.59,10.41-10.94,7.67-27.51,12.03-37.48,22.52l-33.45,51.05c1.07-9.64-1.44-22.25,0-31.5Z"/>
  <polygon class="st0" points="892.99 689 866.36 674.14 797 642.01 868.99 649.51 879.8 662.7 892.99 689"/>
  <path class="st0" d="M1116,642.01l-93.99,46.98c7.21-14.21,12.79-28.69,24.66-39.83,23.14-2.15,46.34-3.93,69.34-7.15Z"/>
  <path class="st0" d="M993.99,606.99c-1.77.24-.98-2.27-.87-3.37.7-6.67,3.85-13.66,6.02-19.98l24.85-38.64c-.73,4.84-2.64,9.59-2.97,14.51-.24,3.6,1.26,12.19.84,13.76-1.23,4.64-27.32,24.67-27.87,33.72Z"/>
  <path class="st0" d="M923.99,607c-8.88-12.16-18.55-23.72-29.53-34.04.96-9.74,1.17-18.71-2.45-27.96,3.62,2.92,4.68,8.45,7.17,12.32,4.93,7.67,11.74,14.37,16.34,22.66s7.47,17.31,8.47,27.02Z"/>
</svg>